<svg xmlns="http://www.w3.org/2000/svg" viewBox="0 0 680 526" style="background:#18191b">
  <defs>
    <marker id="arrow" viewBox="0 0 10 10" refX="8" refY="5" markerWidth="6" markerHeight="6" orient="auto-start-reverse">
      <path d="M2 1L8 5L2 9" fill="none" stroke="#475569" stroke-width="1.5" stroke-linecap="round" stroke-linejoin="round"/>
    </marker>
  </defs>

  <!-- IdP / SSO (top) -->
  <rect x="60" y="24" width="560" height="44" rx="6" fill="#1c1e22" stroke="#2a2d31" stroke-width="1"/>
  <text x="340" y="42" text-anchor="middle" font-family="system-ui,sans-serif" font-size="13" font-weight="600" fill="#cbd5e1">IdP / SSO</text>
  <text x="340" y="59" text-anchor="middle" font-family="system-ui,sans-serif" font-size="11" fill="#64748b">Okta · Microsoft Entra ID · Google Workspace</text>

  <!-- Double-headed arrows: IdP/SSO ↕ Requestors -->
  <line x1="144" y1="68" x2="144" y2="112" stroke="#2a2d31" stroke-width="1" marker-start="url(#arrow)" marker-end="url(#arrow)"/>
  <line x1="340" y1="68" x2="340" y2="112" stroke="#2a2d31" stroke-width="1" marker-start="url(#arrow)" marker-end="url(#arrow)"/>
  <line x1="536" y1="68" x2="536" y2="112" stroke="#2a2d31" stroke-width="1" marker-start="url(#arrow)" marker-end="url(#arrow)"/>
  <text x="340" y="90" text-anchor="middle" font-family="system-ui,sans-serif" font-size="9.9" fill="#475569">authenticates with</text>

  <!-- Requestors -->
  <rect x="60" y="112" width="168" height="40" rx="6" fill="#1c1e22" stroke="#f97316" stroke-width="1.5"/>
  <text x="144" y="137" text-anchor="middle" font-family="system-ui,sans-serif" font-size="13" font-weight="700" fill="#f97316">jitsudo CLI</text>

  <rect x="256" y="112" width="168" height="40" rx="6" fill="#0f1e33" stroke="#1e3a5f" stroke-width="1"/>
  <text x="340" y="137" text-anchor="middle" font-family="system-ui,sans-serif" font-size="13" font-weight="500" fill="#7dd3fc">AI agent</text>

  <rect x="452" y="112" width="168" height="40" rx="6" fill="#0f1e33" stroke="#1e3a5f" stroke-width="1"/>
  <text x="536" y="137" text-anchor="middle" font-family="system-ui,sans-serif" font-size="13" font-weight="500" fill="#7dd3fc">Slack bot</text>

  <!-- Converge: requestors → jitsudod -->
  <line x1="144" y1="152" x2="144" y2="176" stroke="#2a2d31" stroke-width="1"/>
  <line x1="340" y1="152" x2="340" y2="176" stroke="#2a2d31" stroke-width="1"/>
  <line x1="536" y1="152" x2="536" y2="176" stroke="#2a2d31" stroke-width="1"/>
  <line x1="144" y1="176" x2="536" y2="176" stroke="#2a2d31" stroke-width="1"/>
  <line x1="340" y1="176" x2="340" y2="212" stroke="#2a2d31" stroke-width="1" marker-end="url(#arrow)"/>
  <text x="340" y="194" text-anchor="middle" font-family="system-ui,sans-serif" font-size="9.9" fill="#475569">authenticated request</text>

  <!-- jitsudod outer box -->
  <rect x="60" y="212" width="560" height="204" rx="6" fill="#1c1e22" stroke="#f97316" stroke-width="1.5"/>
  <text x="340" y="230" text-anchor="middle" font-family="system-ui,sans-serif" font-size="13" font-weight="700" fill="#f97316">jitsudod</text>
  <line x1="80" y1="238" x2="620" y2="238" stroke="#2a2d31" stroke-width="1"/>

  <!-- OPA subcomponent chip -->
  <rect x="80" y="248" width="190" height="40" rx="4" fill="#0d1520" stroke="#1e3a5f" stroke-width="1"/>
  <text x="175" y="263" text-anchor="middle" font-family="system-ui,sans-serif" font-size="10" font-weight="600" fill="#7dd3fc">OPA</text>
  <text x="175" y="278" text-anchor="middle" font-family="system-ui,sans-serif" font-size="9" fill="#475569">approval routing (if eligible)</text>

  <!-- PostgreSQL subcomponent chip -->
  <rect x="410" y="248" width="190" height="40" rx="4" fill="#0d1520" stroke="#1e3a5f" stroke-width="1"/>
  <text x="505" y="263" text-anchor="middle" font-family="system-ui,sans-serif" font-size="10" font-weight="600" fill="#7dd3fc">PostgreSQL</text>
  <text x="505" y="278" text-anchor="middle" font-family="system-ui,sans-serif" font-size="9" fill="#475569">policies · states · audit log</text>

  <!-- Stub: chips → fan-out bar -->
  <line x1="160" y1="288" x2="160" y2="304" stroke="#2a2d31" stroke-width="1"/>

  <!-- Fan-out bar → tier boxes -->
  <line x1="160" y1="304" x2="520" y2="304" stroke="#2a2d31" stroke-width="1"/>
  <line x1="160" y1="304" x2="160" y2="320" stroke="#2a2d31" stroke-width="1" marker-end="url(#arrow)"/>
  <line x1="340" y1="304" x2="340" y2="320" stroke="#2a2d31" stroke-width="1" marker-end="url(#arrow)"/>
  <line x1="520" y1="304" x2="520" y2="320" stroke="#2a2d31" stroke-width="1" marker-end="url(#arrow)"/>

  <!-- Tier 1: green -->
  <rect x="80" y="320" width="160" height="56" rx="6" fill="#0f1f0f" stroke="#1a3a1a" stroke-width="1"/>
  <text x="160" y="341" text-anchor="middle" font-family="system-ui,sans-serif" font-size="11" font-weight="600" fill="#86efac" letter-spacing="0.04em">Tier 1</text>
  <text x="160" y="357" text-anchor="middle" font-family="system-ui,sans-serif" font-size="10" fill="#64748b">auto-approval</text>

  <!-- Tier 2: yellow -->
  <rect x="260" y="320" width="160" height="56" rx="6" fill="#1c1a05" stroke="#3d3608" stroke-width="1"/>
  <text x="340" y="341" text-anchor="middle" font-family="system-ui,sans-serif" font-size="11" font-weight="600" fill="#facc15" letter-spacing="0.04em">Tier 2</text>
  <text x="340" y="357" text-anchor="middle" font-family="system-ui,sans-serif" font-size="10" fill="#64748b">AI approval (MCP)</text>

  <!-- Tier 3: red -->
  <rect x="440" y="320" width="160" height="56" rx="6" fill="#1f0f0f" stroke="#3a1a1a" stroke-width="1"/>
  <text x="520" y="341" text-anchor="middle" font-family="system-ui,sans-serif" font-size="11" font-weight="600" fill="#f87171" letter-spacing="0.04em">Tier 3</text>
  <text x="520" y="357" text-anchor="middle" font-family="system-ui,sans-serif" font-size="10" fill="#64748b">human approval</text>

  <!-- Fan-in: tier boxes → convergence bar -->
  <line x1="160" y1="376" x2="160" y2="400" stroke="#2a2d31" stroke-width="1"/>
  <line x1="340" y1="376" x2="340" y2="400" stroke="#2a2d31" stroke-width="1"/>
  <line x1="520" y1="376" x2="520" y2="400" stroke="#2a2d31" stroke-width="1"/>
  <line x1="160" y1="400" x2="520" y2="400" stroke="#2a2d31" stroke-width="1"/>

  <!-- Arrow: exits jitsudod → Cloud Providers -->
  <line x1="340" y1="400" x2="340" y2="460" stroke="#2a2d31" stroke-width="1" marker-end="url(#arrow)"/>
  <text x="340" y="438" text-anchor="middle" font-family="system-ui,sans-serif" font-size="9.9" fill="#475569">grants access to</text>

  <!-- Cloud Providers box -->
  <rect x="60" y="460" width="560" height="50" rx="6" fill="#1c1e22" stroke="#2a2d31" stroke-width="1"/>
  <text x="340" y="479" text-anchor="middle" font-family="system-ui,sans-serif" font-size="13" font-weight="600" fill="#cbd5e1">AWS · GCP · Azure · Kubernetes</text>
  <text x="340" y="496" text-anchor="middle" font-family="system-ui,sans-serif" font-size="11" fill="#64748b">time-limited · auto-expires · fully audited</text>
</svg>
